<?xml version="1.0" encoding="utf-8"?>
<!-- Generator: Adobe Illustrator 24.1.3, SVG Export Plug-In . SVG Version: 6.00 Build 0)  -->
<svg version="1.1" id="Layer_1" xmlns="http://www.w3.org/2000/svg" xmlns:xlink="http://www.w3.org/1999/xlink" x="0px" y="0px"
	 viewBox="0 0 183 46" style="enable-background:new 0 0 183 46;" xml:space="preserve">
<style type="text/css">
	.st0{fill:#00659D;}
	.st1{fill:#33B2E6;}
	.st2{fill:#807F7F;}
</style>
<g>
	<g>
		<path class="st0" d="M24.1,34.6c0-2.4-0.1-4.9,0-7.3c0.3-8.2,0.1-16.4,0.1-24.6c0-0.6,0.1-0.6,0.6-0.4C28,3.9,31.1,5.4,34.1,7
			c2.7,1.4,5.4,2.7,8.1,4.1c0.3,0.1,0.4,0.3,0.4,0.6c0,1.9,0,3.8,0,5.7c0,0.5-0.2,0.5-0.6,0.4c-2.4-0.8-4.8-1.7-7.2-2.6
			c-0.5-0.2-1-0.3-1.5-0.5c-0.5-0.2-0.7,0-0.7,0.5c0,1.5,0,3,0,4.5c0.1,4.1,0.2,8.1,0.1,12.2c0,0.6,0.2,0.8,0.8,0.8
			c2.7-0.1,5.5-0.2,8.2-0.3c0.7,0,0.9,0.2,0.9,0.9c-0.1,2.1,0.1,4.2-0.2,6.2c0,0.3-0.1,0.5-0.5,0.6c-2.6,0.4-5.2,0.9-7.8,1.4
			c-3.2,0.5-6.3,1.1-9.5,1.7c-0.6,0.1-0.6-0.2-0.6-0.6C24.1,39.8,24.1,37.2,24.1,34.6z"/>
		<path class="st0" d="M7.7,10.4c0,2.7,0,5.3,0,8c0,0.3,0,0.6,0,1c0,0.4,0.2,0.6,0.6,0.5c1.2-0.2,2.4-0.4,3.6-0.4
			c0.9,0,1.1-0.3,1.1-1.2c0-3.5,0-7,0-10.5c0-0.7,0.2-1.1,0.8-1.4c1.7-0.9,3.4-1.8,5.2-2.8c1-0.5,1.9-1,2.9-1.5
			c0.2,0.2,0.1,0.4,0.1,0.7c0,8,0.1,16.1,0,24.1c-0.1,5.2-0.1,10.4-0.1,15.6c0,0.5,0,0.7-0.7,0.6c-2.6-0.6-5.1-1.1-7.7-1.5
			c-0.4-0.1-0.4-0.3-0.4-0.6c0-1.9,0-3.8,0-5.7c0-2.5,0-4.9,0-7.4c0-0.6-0.2-0.8-0.8-0.8c-1.2,0-2.5,0-3.7,0c-0.5,0-0.6,0.2-0.6,0.6
			c0,0.8,0,1.7,0,2.5c0,0.4-0.1,0.5-0.5,0.6c-1.2,0.4-2.4,0.8-3.7,1.1c-0.5,0.1-0.5,0-0.5-0.4c0-0.2,0-0.4,0-0.6c0-1.5,0-3.1,0-4.6
			c0.1-3.9-0.2-7.8-0.2-11.7c0-0.8,0.3-1.3,1-1.8C5.2,12,6.4,11.2,7.7,10.4z"/>
		<path class="st1" d="M7.8,37.4c0,0.8,0,1.6,0,2.4c0,0.5-0.2,0.6-0.6,0.6c-1.3-0.2-2.5-0.3-3.8-0.4c-0.3,0-0.3-0.2-0.3-0.5
			c0-1.2,0-2.3,0-3.5c0-0.3,0.1-0.4,0.4-0.5c1.2-0.3,2.5-0.6,3.7-1c0.6-0.2,0.7,0.1,0.7,0.5C7.8,35.8,7.8,36.6,7.8,37.4z"/>
		<path class="st1" d="M34.4,20.8c0-0.7,0-1.4,0-2.1c0-0.4,0.1-0.5,0.5-0.4c0.9,0.3,1.9,0.6,2.8,0.8c0.3,0.1,0.5,0.2,0.5,0.7
			c0,1.1,0,2.3,0,3.4c0,0.5-0.2,0.6-0.6,0.5c-0.9-0.1-1.9-0.2-2.8-0.3c-0.3,0-0.4-0.2-0.4-0.5C34.4,22.3,34.4,21.5,34.4,20.8z"/>
		<path class="st1" d="M34.4,27.2c0-0.7,0-1.4,0-2.1c0-0.3,0.1-0.5,0.5-0.5c0.9,0.1,1.9,0.3,2.8,0.4c0.4,0,0.5,0.2,0.5,0.6
			c0,1.1,0,2.2,0,3.3c0,0.4-0.1,0.5-0.5,0.5c-1,0-2-0.1-3,0.1c-0.3,0.1-0.3-0.2-0.3-0.4C34.4,28.5,34.4,27.9,34.4,27.2z"/>
		<path class="st1" d="M39.4,21.6c0-0.2,0-0.3,0-0.5c0-1.5,0-1.5,1.5-1.1c1.8,0.5,1.8,0.5,1.8,2.3c0,0.3,0,0.5,0,0.8
			c0,1.1-0.1,1.2-1.2,1c-0.2,0-0.4-0.1-0.6-0.1c-1.5-0.2-1.5-0.2-1.5-1.7C39.4,22.1,39.4,21.9,39.4,21.6z"/>
		<path class="st1" d="M42.6,27.4c0,0.4,0,0.8,0,1.2c0,0.5-0.2,0.8-0.7,0.8c-0.6,0-1.3,0-1.9,0c-0.4,0-0.6-0.2-0.6-0.6
			c0-0.9,0-1.8,0-2.7c0-0.5,0.2-0.9,0.8-0.8c0.7,0,1.3,0.2,2,0.2c0.3,0,0.4,0.2,0.4,0.5C42.6,26.4,42.6,26.9,42.6,27.4z"/>
	</g>
	<g>
		<g>
			<path class="st0" d="M135.7,17c0,1.6,0,3.2,0,4.8c0,0.4-0.1,0.5-0.5,0.5c-1.4,0.2-2.3-0.3-3-1.5c-0.8-1.2-1.7-2.2-2.5-3.3
				c-0.1-0.1-0.1-0.1-0.2-0.2c-0.1-0.1-0.1-0.2-0.3-0.1c-0.2,0-0.1,0.2-0.1,0.3c0,1.3,0,2.6,0,3.9c0,1,0.1,0.9-0.9,0.9
				c-0.5,0-1.1,0-1.6,0c-0.3,0-0.5-0.1-0.5-0.5c0-3.3,0-6.6,0-9.8c0-0.4,0.2-0.5,0.5-0.5c0.2,0,0.4,0,0.6,0c1-0.2,1.6,0.2,2.2,1
				c0.9,1.3,2,2.6,3,3.8c0.1,0.1,0.2,0.4,0.4,0.3c0.2-0.1,0.1-0.3,0.1-0.4c0-1.4,0-2.8,0-4.2c0-0.4,0.1-0.6,0.5-0.5
				c0.6,0,1.2,0,1.8,0c0.4,0,0.5,0.1,0.5,0.5C135.7,13.7,135.7,15.4,135.7,17z"/>
			<path class="st1" d="M53.1,17c0-1.6,0-3.3,0-4.9c0-0.4,0.1-0.5,0.5-0.5c0.7,0,1.4,0,2.1,0c0.4,0,0.6,0.2,0.5,0.6c0,1,0,2,0,3
				c0,0.3,0.1,0.5,0.5,0.5c0.9,0,1.7,0,2.6,0c0.3,0,0.5-0.1,0.5-0.5c0-1,0-1.9,0-2.9c0-0.5,0.2-0.7,0.7-0.7c0.7,0,1.3,0,2,0
				c0.3,0,0.5,0.1,0.5,0.5c0,3.3,0,6.5,0,9.8c0,0.3-0.1,0.5-0.5,0.5c-0.7,0-1.4,0-2.2,0c-0.4,0-0.5-0.2-0.5-0.5c0-1,0-2.1,0-3.1
				c0-0.4-0.1-0.5-0.5-0.5c-0.8,0-1.7,0-2.5,0c-0.4,0-0.5,0.1-0.5,0.5c0,1,0,2,0,3.1c0,0.4-0.1,0.6-0.6,0.6c-0.7,0-1.3,0-2,0
				c-0.4,0-0.6-0.1-0.5-0.5C53.1,20.2,53.1,18.6,53.1,17z"/>
			<path class="st0" d="M137.7,16.9c0-1.6,0-3.1,0-4.7c0-0.5,0.1-0.7,0.6-0.7c2.3,0,4.5,0,6.8,0c0.5,0,0.6,0.1,0.6,0.6
				c0,0.4,0,0.9,0,1.3c0,0.5-0.2,0.6-0.6,0.6c-1.3,0-2.6,0-3.9,0c-0.4,0-0.6,0.1-0.6,0.6c0,1,0,1,1,1c1,0,2,0,3,0
				c0.4,0,0.6,0.1,0.6,0.6c0,0.4,0,0.8,0,1.3c0,0.5-0.2,0.6-0.6,0.6c-1.1,0-2.2,0-3.3,0c-0.4,0-0.6,0.1-0.6,0.6c0,1.1,0,1.1,1.1,1.1
				c1.2,0,2.4,0,3.6,0c0.4,0,0.5,0.1,0.5,0.5c0,0.6,0,1.1,0,1.7c0,0.3-0.1,0.4-0.4,0.4c-2.4,0-4.9,0-7.3,0c-0.4,0-0.4-0.3-0.4-0.6
				C137.7,20.2,137.7,18.5,137.7,16.9z"/>
			<path class="st1" d="M65.1,11.6c0,0,0.1,0,0.1,0c1.5,0,1.6,0.1,2.3,1.5c0.3,0.8,0.8,1.5,1.2,2.2c0.2,0.4,0.3,0.1,0.4,0
				c0.4-0.6,0.7-1.3,1.1-1.9c0.3-0.5,0.6-1,0.9-1.5c0.1-0.2,0.3-0.3,0.6-0.3c0.7,0,1.3,0,2,0c0.4,0,0.5,0.1,0.3,0.5
				c-1,1.8-2,3.5-3,5.3c-0.4,0.7-0.7,1.3-0.6,2.2c0.1,0.8,0,1.5,0,2.3c0,0.4-0.1,0.6-0.6,0.6c-0.7,0-1.3,0-2,0c-0.3,0-0.4,0-0.4-0.4
				c0.1-1,0-2.1,0-3.1c0-0.2-0.1-0.5-0.2-0.7c-0.9-1.4-1.6-3-2.5-4.4c-0.3-0.5-0.5-1.2-0.9-1.7c-0.2-0.2-0.1-0.4,0.2-0.4
				C64.3,11.6,64.7,11.6,65.1,11.6z"/>
			<path class="st1" d="M99.7,17c0,1.6,0,3.2,0,4.9c0,0.4-0.1,0.6-0.5,0.5c-0.6,0-1.3,0-2,0c-0.3,0-0.5-0.1-0.5-0.5
				c0-3.3,0-6.6,0-9.9c0-0.4,0.2-0.5,0.5-0.4c0.7,0,1.3,0,2,0c0.4,0,0.5,0.1,0.5,0.5C99.7,13.7,99.7,15.3,99.7,17z"/>
			<path class="st1" d="M83.4,17.1c-0.4-0.3-0.4-0.4-0.1-0.8c1-1,0.9-2.7,0-3.7c-0.8-0.8-1.9-1-3-1c-1.6,0-3.3,0-4.9,0
				c-0.4,0-0.5,0.1-0.5,0.5c0,1.6,0,3.2,0,4.9c0,1.6,0,3.3,0,4.9c0,0.2,0,0.5,0.3,0.5c2.2-0.1,4.4,0.1,6.6-0.1
				c1-0.1,1.9-0.5,2.3-1.4C84.7,19.7,84.7,18,83.4,17.1z M78.5,13.9c0.6,0.1,1.1-0.1,1.7,0.1c0.4,0.1,0.7,0.3,0.7,0.8
				c0,0.5-0.2,0.8-0.7,0.9c-0.4,0.1-0.8,0-1.1,0.1c-1.5,0-1.3,0.2-1.3-1.3C77.8,14,78,13.8,78.5,13.9z M80.8,19.9
				C79.9,20.1,79,20,78.2,20c-0.3,0-0.4-0.2-0.4-0.4c0-0.4,0-0.7,0-1.1c0-0.4,0.2-0.5,0.5-0.5c0.3,0,0.6,0,0.9,0
				c0.5,0,1.1,0,1.6,0.1c0.5,0.2,0.7,0.5,0.6,1C81.4,19.6,81.2,19.8,80.8,19.9z"/>
			<path class="st1" d="M112.2,15.9c-0.4-2.8-2.6-4.2-5.2-4.3c-1.5,0-2.9,0-4.4,0c-0.7,0-0.7,0-0.7,0.7c0,1.6,0,3.1,0,4.7
				c0,1.6,0,3.2,0,4.8c0,0.4,0.1,0.6,0.6,0.6c1.6,0,3.1,0,4.7,0c1.4-0.1,2.6-0.5,3.6-1.4C112.2,19.5,112.4,17.7,112.2,15.9z
				 M106.5,19.8c-0.4,0-0.8,0-1.2,0c-0.4,0-0.5-0.2-0.5-0.6c0-0.8,0-1.5,0-2.3s0-1.5,0-2.3c0-0.3,0.1-0.5,0.4-0.5c1-0.1,2,0,2.9,0.5
				c0.6,0.3,0.8,0.9,1,1.4C109.6,17.9,108.7,19.7,106.5,19.8z"/>
			<path class="st0" d="M119.1,11.4c-3.5-0.1-5.8,2.4-5.8,5.7c0,3.3,2.4,5.5,5.6,5.5c3.1,0.1,5.5-2.4,5.6-5.2
				C124.6,13.6,122,11.4,119.1,11.4z M120,19.6c-1.2,0.6-2.6,0.2-3.2-1c-0.6-1.1-0.6-2.3,0-3.4c0.9-1.5,2.7-1.6,3.8-0.6
				c0.6,0.6,0.9,1.3,0.9,2.8C121.5,18.2,121,19.1,120,19.6z"/>
			<path class="st1" d="M94.8,21.3c-0.4-0.6-0.9-1.3-1.3-1.9c-0.1-0.2-0.3-0.3,0-0.5c1.7-1.1,1.8-2.7,1.5-4.5c0-0.2-0.1-0.4-0.2-0.6
				c-0.9-1.6-2.3-2.2-4-2.2c-1.4,0-2.7,0-4.1,0c-0.5,0-0.7,0.1-0.6,0.6c0,1.6,0,3.2,0,4.8c0,1.6,0,3.2,0,4.8c0,0.5,0.2,0.6,0.6,0.6
				c0.6,0,1.1,0,1.7,0c0.5,0,0.7-0.1,0.7-0.6c0-0.6,0-1.2,0-1.7c0-0.3,0.1-0.4,0.4-0.4c1-0.1,1.2,0,1.6,0.9c0.9,1.9,0.9,1.9,3,1.9
				c0.1,0,0.2,0,0.3,0c0.3,0,0.8,0.2,0.9-0.1C95.4,21.9,95,21.6,94.8,21.3z M92.1,15.9c0,0.5-0.4,1-0.9,1.1
				c-0.6,0.1-1.1,0.2-1.7,0.1c-0.3,0-0.5-0.1-0.5-0.5c0-0.3,0-0.7,0-1c0-0.3,0-0.5,0-0.8c0-0.7,0-0.7,0.7-0.7c0.5,0,1,0,1.6,0.2
				C92,14.6,92.2,14.9,92.1,15.9z"/>
		</g>
		<g>
			<path class="st2" d="M53.5,27.8c0.3-0.6,0.7-1,1.3-1.4c0.6-0.3,1.2-0.5,2-0.5c0.7,0,1.2,0.1,1.8,0.4c0.5,0.2,0.9,0.6,1.3,1
				c0.3,0.5,0.5,1,0.6,1.6H58c-0.1-0.3-0.3-0.4-0.5-0.6c-0.2-0.1-0.5-0.2-0.7-0.2c-0.4,0-0.7,0.2-1,0.5c-0.2,0.3-0.3,0.7-0.3,1.2
				c0,0.5,0.1,0.9,0.3,1.2c0.2,0.3,0.5,0.5,1,0.5c0.3,0,0.5-0.1,0.7-0.2c0.2-0.1,0.4-0.3,0.5-0.6h2.5c-0.1,0.6-0.3,1.1-0.6,1.6
				c-0.3,0.5-0.7,0.8-1.3,1c-0.5,0.2-1.1,0.4-1.8,0.4c-0.8,0-1.4-0.2-2-0.5c-0.6-0.3-1-0.8-1.3-1.4c-0.3-0.6-0.5-1.3-0.5-2
				S53.2,28.4,53.5,27.8z"/>
			<path class="st2" d="M63.1,33.2c-0.6-0.3-1.1-0.8-1.4-1.4c-0.4-0.6-0.5-1.3-0.5-2c0-0.7,0.2-1.4,0.5-2c0.4-0.6,0.8-1.1,1.4-1.4
				c0.6-0.3,1.3-0.5,2-0.5c0.7,0,1.4,0.2,2,0.5c0.6,0.3,1.1,0.8,1.4,1.4c0.3,0.6,0.5,1.3,0.5,2c0,0.7-0.2,1.4-0.5,2
				c-0.3,0.6-0.8,1.1-1.4,1.4c-0.6,0.3-1.3,0.5-2,0.5C64.4,33.7,63.7,33.5,63.1,33.2z M66.2,31c0.3-0.3,0.4-0.7,0.4-1.2
				c0-0.5-0.1-0.9-0.4-1.2c-0.3-0.3-0.6-0.5-1.1-0.5c-0.5,0-0.8,0.2-1.1,0.5c-0.3,0.3-0.4,0.7-0.4,1.2c0,0.5,0.1,0.9,0.4,1.2
				c0.3,0.3,0.6,0.5,1.1,0.5C65.6,31.4,65.9,31.3,66.2,31z"/>
			<path class="st2" d="M77.1,33.6h-2.4l-2.5-3.8v3.8h-2.4V26h2.4l2.5,3.9V26h2.4V33.6z"/>
			<path class="st2" d="M78.9,33c-0.6-0.4-0.9-1.1-1-1.9h2.5c0,0.4,0.2,0.7,0.6,0.7c0.1,0,0.2,0,0.3-0.1c0.1-0.1,0.1-0.2,0.1-0.3
				c0-0.2-0.1-0.3-0.3-0.4c-0.2-0.1-0.5-0.2-0.9-0.4c-0.5-0.2-0.9-0.3-1.2-0.5c-0.3-0.2-0.6-0.4-0.8-0.7c-0.2-0.3-0.3-0.7-0.3-1.2
				c0-0.5,0.1-0.9,0.4-1.3c0.3-0.3,0.6-0.6,1-0.8c0.4-0.2,0.9-0.3,1.5-0.3c0.9,0,1.7,0.2,2.2,0.6c0.5,0.4,0.8,1,0.9,1.8h-2.6
				c0-0.2-0.1-0.4-0.2-0.5c-0.1-0.1-0.2-0.1-0.4-0.1c-0.1,0-0.2,0-0.2,0.1c-0.1,0.1-0.1,0.2-0.1,0.3c0,0.2,0.1,0.3,0.3,0.4
				c0.2,0.1,0.5,0.2,0.9,0.4c0.5,0.2,0.9,0.4,1.2,0.5c0.3,0.2,0.6,0.4,0.8,0.7c0.2,0.3,0.3,0.7,0.3,1.1c0,0.5-0.1,0.9-0.3,1.3
				c-0.2,0.4-0.6,0.7-1,0.9c-0.4,0.2-1,0.3-1.6,0.3C80.3,33.7,79.5,33.5,78.9,33z"/>
			<path class="st2" d="M90.9,26v1.9h-2v5.7h-2.4v-5.7h-2V26H90.9z"/>
			<path class="st2" d="M95.3,33.6l-1.4-2.7h0v2.7h-2.4V26h3.5c0.6,0,1.1,0.1,1.6,0.3c0.4,0.2,0.8,0.5,1,0.9
				c0.2,0.4,0.3,0.8,0.3,1.3c0,0.5-0.1,1-0.4,1.4c-0.3,0.4-0.7,0.7-1.2,0.8l1.7,2.9H95.3z M93.9,29.3h0.9c0.2,0,0.4-0.1,0.5-0.2
				c0.1-0.1,0.2-0.3,0.2-0.5c0-0.2-0.1-0.4-0.2-0.5C95.2,28,95.1,28,94.8,28h-0.9V29.3z"/>
			<path class="st2" d="M101,26v4.3c0,0.4,0.1,0.6,0.2,0.8c0.2,0.2,0.4,0.3,0.7,0.3c0.3,0,0.6-0.1,0.8-0.3c0.2-0.2,0.2-0.5,0.2-0.8
				V26h2.4v4.3c0,0.7-0.2,1.3-0.5,1.9c-0.3,0.5-0.7,0.9-1.2,1.2c-0.5,0.3-1.1,0.4-1.7,0.4c-0.6,0-1.2-0.1-1.7-0.4
				c-0.5-0.3-0.9-0.6-1.2-1.1c-0.3-0.5-0.4-1.1-0.4-1.9V26H101z"/>
			<path class="st2" d="M106.7,27.8c0.3-0.6,0.7-1,1.3-1.4c0.6-0.3,1.2-0.5,2-0.5c0.7,0,1.2,0.1,1.8,0.4c0.5,0.2,0.9,0.6,1.3,1
				c0.3,0.5,0.5,1,0.6,1.6h-2.5c-0.1-0.3-0.3-0.4-0.5-0.6c-0.2-0.1-0.5-0.2-0.7-0.2c-0.4,0-0.7,0.2-1,0.5c-0.2,0.3-0.3,0.7-0.3,1.2
				c0,0.5,0.1,0.9,0.3,1.2c0.2,0.3,0.5,0.5,1,0.5c0.3,0,0.5-0.1,0.7-0.2c0.2-0.1,0.4-0.3,0.5-0.6h2.5c-0.1,0.6-0.3,1.1-0.6,1.6
				c-0.3,0.5-0.7,0.8-1.3,1c-0.5,0.2-1.1,0.4-1.8,0.4c-0.8,0-1.4-0.2-2-0.5c-0.6-0.3-1-0.8-1.3-1.4c-0.3-0.6-0.5-1.3-0.5-2
				S106.4,28.4,106.7,27.8z"/>
			<path class="st2" d="M120.5,26v1.9h-2v5.7h-2.4v-5.7h-2V26H120.5z"/>
			<path class="st2" d="M123.5,26v7.6h-2.4V26H123.5z"/>
			<path class="st2" d="M126.3,33.2c-0.6-0.3-1.1-0.8-1.4-1.4c-0.4-0.6-0.5-1.3-0.5-2c0-0.7,0.2-1.4,0.5-2c0.4-0.6,0.8-1.1,1.4-1.4
				c0.6-0.3,1.3-0.5,2-0.5c0.7,0,1.4,0.2,2,0.5c0.6,0.3,1.1,0.8,1.4,1.4c0.3,0.6,0.5,1.3,0.5,2c0,0.7-0.2,1.4-0.5,2
				c-0.3,0.6-0.8,1.1-1.4,1.4c-0.6,0.3-1.3,0.5-2,0.5C127.6,33.7,126.9,33.5,126.3,33.2z M129.4,31c0.3-0.3,0.4-0.7,0.4-1.2
				c0-0.5-0.1-0.9-0.4-1.2c-0.3-0.3-0.6-0.5-1.1-0.5c-0.5,0-0.8,0.2-1.1,0.5c-0.3,0.3-0.4,0.7-0.4,1.2c0,0.5,0.1,0.9,0.4,1.2
				c0.3,0.3,0.6,0.5,1.1,0.5C128.8,31.4,129.1,31.3,129.4,31z"/>
			<path class="st2" d="M140.3,33.6h-2.4l-2.5-3.8v3.8H133V26h2.4l2.5,3.9V26h2.4V33.6z"/>
			<path class="st2" d="M142.1,33c-0.6-0.4-0.9-1.1-1-1.9h2.5c0,0.4,0.2,0.7,0.6,0.7c0.1,0,0.2,0,0.3-0.1c0.1-0.1,0.1-0.2,0.1-0.3
				c0-0.2-0.1-0.3-0.3-0.4c-0.2-0.1-0.5-0.2-0.9-0.4c-0.5-0.2-0.9-0.3-1.2-0.5c-0.3-0.2-0.6-0.4-0.8-0.7c-0.2-0.3-0.3-0.7-0.3-1.2
				c0-0.5,0.1-0.9,0.4-1.3c0.3-0.3,0.6-0.6,1-0.8c0.4-0.2,0.9-0.3,1.5-0.3c0.9,0,1.7,0.2,2.2,0.6c0.5,0.4,0.8,1,0.9,1.8h-2.6
				c0-0.2-0.1-0.4-0.2-0.5c-0.1-0.1-0.2-0.1-0.4-0.1c-0.1,0-0.2,0-0.2,0.1c-0.1,0.1-0.1,0.2-0.1,0.3c0,0.2,0.1,0.3,0.3,0.4
				c0.2,0.1,0.5,0.2,0.9,0.4c0.5,0.2,0.9,0.4,1.2,0.5c0.3,0.2,0.6,0.4,0.8,0.7c0.2,0.3,0.3,0.7,0.3,1.1c0,0.5-0.1,0.9-0.3,1.3
				c-0.2,0.4-0.6,0.7-1,0.9c-0.4,0.2-1,0.3-1.6,0.3C143.5,33.7,142.7,33.5,142.1,33z"/>
		</g>
	</g>
</g>
</svg>
